<svg aria-hidden="true" style="position: absolute; width: 0; height: 0; overflow: hidden;" version="1.1"
     xmlns="http://www.w3.org/2000/svg" xmlns:xlink="http://www.w3.org/1999/xlink">
    <defs>

        <!--FB-->
        <symbol id="icon-facebook" viewBox="0 0 20 32">
            <path d="M17.446 18l0.889-5.791h-5.557v-3.758c0-1.584 0.776-3.129 3.265-3.129h2.526v-4.931c0 0-2.293-0.391-4.484-0.391-4.576 0-7.567 2.774-7.567 7.795v4.414h-5.087v5.791h5.087v14h6.261v-14h4.668z"></path>
        </symbol>

        <!--Quote-->
        <symbol id="icon-quote-left" viewBox="0 0 32 32">
            <path d="M29 16h-5v-4c0-2.206 1.794-4 4-4h0.5c0.831 0 1.5-0.669 1.5-1.5v-3c0-0.831-0.669-1.5-1.5-1.5h-0.5c-5.525 0-10 4.475-10 10v15c0 1.656 1.344 3 3 3h8c1.656 0 3-1.344 3-3v-8c0-1.656-1.344-3-3-3zM11 16h-5v-4c0-2.206 1.794-4 4-4h0.5c0.831 0 1.5-0.669 1.5-1.5v-3c0-0.831-0.669-1.5-1.5-1.5h-0.5c-5.525 0-10 4.475-10 10v15c0 1.656 1.344 3 3 3h8c1.656 0 3-1.344 3-3v-8c0-1.656-1.344-3-3-3z"></path>
        </symbol>

        <!--Arrow-->
        <symbol id="icon-chevron-down" viewBox="0 0 28 32">
            <path d="M12.939 23.842l-12.146-12.146c-0.586-0.586-0.586-1.536 0-2.121l1.417-1.417c0.585-0.585 1.533-0.586 2.119-0.002l9.672 9.626 9.672-9.626c0.586-0.583 1.534-0.582 2.119 0.002l1.417 1.417c0.586 0.586 0.586 1.536 0 2.121l-12.146 12.146c-0.586 0.586-1.536 0.586-2.121 0z"></path>
        </symbol>

        <!--Thumb-->
        <symbol id="icon-thumbs-up" viewBox="0 0 32 32">
            <path d="M29.142 17.918c0.548-0.928 0.858-1.918 0.858-3.115 0-2.751-2.326-5.349-5.364-5.349h-2.28c0.308-0.801 0.553-1.758 0.553-2.909 0-4.55-2.356-6.546-5.954-6.546-3.85 0-3.631 5.933-4.485 6.787-1.422 1.422-3.101 4.153-4.297 5.213h-6.173c-1.105 0-2 0.895-2 2v15c0 1.105 0.895 2 2 2h4c0.931 0 1.713-0.636 1.936-1.497 2.782 0.063 4.691 2.496 11.113 2.496 0.451 0 0.951 0.001 1.389 0.001 4.82 0 6.999-2.464 7.059-5.958 0.832-1.152 1.269-2.695 1.084-4.187 0.616-1.153 0.854-2.521 0.562-3.937zM25.282 21.282c0.785 1.321 0.079 3.088-0.871 3.598 0.481 3.049-1.101 4.119-3.32 4.119h-2.364c-4.477 0-7.377-2.364-10.727-2.364v-11.636h0.682c1.772 0 4.249-4.431 5.909-6.091 1.773-1.772 1.182-4.727 2.364-5.909 2.954 0 2.954 2.061 2.954 3.546 0 2.448-1.772 3.545-1.772 5.909h6.499c1.319 0 2.358 1.182 2.364 2.364s-0.801 2.363-1.392 2.363c0.843 0.91 1.023 2.827-0.326 4.101zM5.5 27c0 0.828-0.672 1.5-1.5 1.5s-1.5-0.672-1.5-1.5c0-0.828 0.672-1.5 1.5-1.5s1.5 0.672 1.5 1.5z"></path>
        </symbol>

        <!--Check-->
        <symbol id="icon-check-circle" viewBox="0 0 32 32">
            <path d="M16 0.5c-8.56 0-15.5 6.94-15.5 15.5s6.94 15.5 15.5 15.5c8.56 0 15.5-6.94 15.5-15.5s-6.94-15.5-15.5-15.5zM16 3.5c6.908 0 12.5 5.591 12.5 12.5 0 6.908-5.591 12.5-12.5 12.5-6.908 0-12.5-5.591-12.5-12.5 0-6.908 5.591-12.5 12.5-12.5zM24.763 11.642l-1.409-1.42c-0.292-0.294-0.767-0.296-1.061-0.004l-8.835 8.764-3.737-3.767c-0.292-0.294-0.767-0.296-1.061-0.004l-1.42 1.409c-0.294 0.292-0.296 0.767-0.004 1.061l5.674 5.72c0.292 0.294 0.767 0.296 1.061 0.004l10.787-10.7c0.294-0.292 0.296-0.767 0.004-1.061z"></path>
        </symbol>

        <!--Search-->
        <symbol id="icon-search" viewBox="0 0 32 32">
            <path d="M31.565 27.666l-6.232-6.231c-0.281-0.281-0.663-0.437-1.063-0.437h-1.019c1.725-2.206 2.75-4.981 2.75-7.999 0-7.181-5.819-12.999-13.001-12.999s-13.001 5.818-13.001 12.999 5.819 12.999 13.001 12.999c3.019 0 5.794-1.025 8.001-2.75v1.019c0 0.4 0.156 0.781 0.438 1.062l6.232 6.231c0.587 0.587 1.538 0.587 2.119 0l1.769-1.769c0.588-0.587 0.588-1.537 0.006-2.125zM13.001 20.998c-4.419 0-8.001-3.575-8.001-7.999 0-4.418 3.575-7.999 8.001-7.999 4.419 0 8.001 3.575 8.001 7.999 0 4.418-3.575 7.999-8.001 7.999z"></path>
        </symbol>

        <!--in-->
        <symbol id="icon-linkedin" viewBox="0 0 28 32">
            <path d="M26 2h-24.006c-1.1 0-1.994 0.906-1.994 2.019v23.962c0 1.113 0.894 2.019 1.994 2.019h24.006c1.1 0 2-0.906 2-2.019v-23.962c0-1.112-0.9-2.019-2-2.019zM8.463 26h-4.15v-13.363h4.156v13.363h-0.006zM6.388 10.813c-1.331 0-2.406-1.081-2.406-2.406s1.075-2.406 2.406-2.406c1.325 0 2.406 1.081 2.406 2.406 0 1.331-1.075 2.406-2.406 2.406zM24.019 26h-4.15v-6.5c0-1.55-0.031-3.544-2.156-3.544-2.162 0-2.494 1.688-2.494 3.431v6.613h-4.15v-13.363h3.981v1.825h0.056c0.556-1.050 1.912-2.156 3.931-2.156 4.2 0 4.981 2.769 4.981 6.369v7.325z"></path>
        </symbol>

        <!--Pinterest-->
        <symbol id="icon-pinterest" viewBox="0 0 31 32">
            <path d="M31 16c0 8.563-6.938 15.5-15.5 15.5-1.6 0-3.137-0.244-4.588-0.694 0.631-1.031 1.575-2.719 1.925-4.063 0.188-0.725 0.963-3.688 0.963-3.688 0.506 0.962 1.981 1.781 3.55 1.781 4.675 0 8.044-4.3 8.044-9.644 0-5.119-4.181-8.95-9.556-8.95-6.688 0-10.244 4.488-10.244 9.381 0 2.275 1.213 5.106 3.144 6.006 0.294 0.137 0.45 0.075 0.519-0.206 0.050-0.212 0.313-1.269 0.431-1.756 0.037-0.156 0.019-0.294-0.106-0.444-0.631-0.781-1.144-2.206-1.144-3.537 0-3.419 2.588-6.725 7-6.725 3.806 0 6.475 2.594 6.475 6.306 0 4.194-2.119 7.1-4.875 7.1-1.519 0-2.662-1.256-2.294-2.8 0.438-1.844 1.281-3.831 1.281-5.162 0-1.188-0.637-2.181-1.963-2.181-1.556 0-2.806 1.606-2.806 3.762 0 1.375 0.463 2.3 0.463 2.3s-1.531 6.488-1.813 7.7c-0.313 1.337-0.188 3.225-0.056 4.45-5.763-2.256-9.85-7.869-9.85-14.438 0-8.563 6.938-15.5 15.5-15.5s15.5 6.938 15.5 15.5z"></path>
        </symbol>

        <!--Twi-->
        <symbol id="icon-twitter" viewBox="0 0 32 32">
            <path d="M28.711 9.482c0.020 0.284 0.020 0.569 0.020 0.853 0 8.67-6.599 18.66-18.66 18.66-3.716 0-7.168-1.076-10.071-2.944 0.528 0.061 1.036 0.081 1.584 0.081 3.066 0 5.888-1.035 8.142-2.802-2.883-0.061-5.299-1.949-6.132-4.548 0.406 0.061 0.812 0.102 1.239 0.102 0.589 0 1.178-0.081 1.726-0.223-3.005-0.609-5.259-3.249-5.259-6.437v-0.081c0.873 0.487 1.888 0.792 2.964 0.832-1.766-1.178-2.924-3.188-2.924-5.462 0-1.218 0.325-2.335 0.893-3.31 3.228 3.98 8.081 6.579 13.523 6.863-0.101-0.487-0.162-0.995-0.162-1.502 0-3.614 2.924-6.558 6.558-6.558 1.888 0 3.594 0.792 4.792 2.071 1.482-0.284 2.904-0.832 4.162-1.584-0.487 1.523-1.523 2.802-2.883 3.614 1.32-0.142 2.599-0.508 3.777-1.015-0.893 1.299-2.010 2.457-3.289 3.391z"></path>
        </symbol>

        <!--Youtube-->
        <symbol id="icon-youtube" viewBox="0 0 36 32">
            <path d="M34.353 7.755c-0.393-1.478-1.549-2.642-3.018-3.037-2.662-0.718-13.336-0.718-13.336-0.718s-10.674 0-13.336 0.718c-1.469 0.395-2.625 1.559-3.018 3.037-0.713 2.679-0.713 8.269-0.713 8.269s0 5.59 0.713 8.269c0.393 1.478 1.549 2.594 3.018 2.989 2.662 0.718 13.336 0.718 13.336 0.718s10.674 0 13.336-0.718c1.469-0.395 2.625-1.511 3.018-2.989 0.713-2.679 0.713-8.269 0.713-8.269s0-5.59-0.713-8.269zM14.509 21.099v-10.15l8.921 5.075-8.921 5.075z"></path>
        </symbol>
    </defs>
</svg>
